<mxfile host="Electron" modified="2023-05-15T22:40:45.027Z" agent="Mozilla/5.0 (Windows NT 10.0; Win64; x64) AppleWebKit/537.36 (KHTML, like Gecko) draw.io/21.2.8 Chrome/112.0.5615.165 Electron/24.2.0 Safari/537.36" etag="tc9Vekt9-eouFEIOCCK6" version="21.2.8" type="device">
  <diagram id="p1WFtV5cTaJLbCV86L4F" name="Page-1">
    <mxGraphModel dx="1518" dy="740" grid="1" gridSize="10" guides="1" tooltips="1" connect="1" arrows="1" fold="1" page="1" pageScale="1" pageWidth="1169" pageHeight="827" math="0" shadow="0">
      <root>
        <mxCell id="0" />
        <mxCell id="1" parent="0" />
        <mxCell id="Lrtluq5l5MD6FJIpUNIz-152" value="click delete&quot;&quot;" style="html=1;verticalAlign=bottom;endArrow=block;rounded=0;elbow=vertical;" edge="1" parent="1">
          <mxGeometry x="-0.0586" y="3" width="80" relative="1" as="geometry">
            <mxPoint x="474.9" y="243" as="sourcePoint" />
            <mxPoint x="654.9" y="243" as="targetPoint" />
            <mxPoint as="offset" />
          </mxGeometry>
        </mxCell>
        <mxCell id="Lrtluq5l5MD6FJIpUNIz-153" value="" style="shape=umlLifeline;participant=umlActor;perimeter=lifelinePerimeter;whiteSpace=wrap;html=1;container=0;collapsible=0;recursiveResize=0;verticalAlign=top;spacingTop=36;outlineConnect=0;fontFamily=Helvetica;fontSize=12;fontColor=default;align=center;strokeColor=default;fillColor=default;size=50;" vertex="1" parent="1">
          <mxGeometry x="420" y="195.14" width="46.09" height="294.86" as="geometry" />
        </mxCell>
        <mxCell id="Lrtluq5l5MD6FJIpUNIz-154" value="Organization" style="text;html=1;align=center;verticalAlign=middle;resizable=1;points=[];autosize=1;strokeColor=none;fillColor=none;container=0;movable=1;rotatable=1;deletable=1;editable=1;connectable=1;locked=0;" vertex="1" parent="1">
          <mxGeometry x="405" y="160" width="90" height="30" as="geometry" />
        </mxCell>
        <mxCell id="Lrtluq5l5MD6FJIpUNIz-155" value="workspace.php" style="shape=umlLifeline;perimeter=lifelinePerimeter;whiteSpace=wrap;html=1;container=0;collapsible=0;recursiveResize=0;outlineConnect=0;" vertex="1" parent="1">
          <mxGeometry x="564.9" y="160" width="199.75" height="340" as="geometry" />
        </mxCell>
        <mxCell id="Lrtluq5l5MD6FJIpUNIz-158" value="" style="html=1;points=[];perimeter=orthogonalPerimeter;container=0;" vertex="1" parent="1">
          <mxGeometry x="657.0899999999999" y="240" width="15.37" height="60" as="geometry" />
        </mxCell>
        <mxCell id="Lrtluq5l5MD6FJIpUNIz-161" value="&lt;font style=&quot;font-size: 14px;&quot;&gt;&lt;b&gt;&lt;u&gt;Delete dataset&lt;/u&gt;&lt;/b&gt;&lt;/font&gt;" style="text;html=1;align=center;verticalAlign=middle;resizable=0;points=[];autosize=1;strokeColor=none;fillColor=none;" vertex="1" parent="1">
          <mxGeometry x="525" y="90" width="120" height="30" as="geometry" />
        </mxCell>
        <mxCell id="Lrtluq5l5MD6FJIpUNIz-182" value="clicks &quot;ok&quot;" style="html=1;verticalAlign=bottom;endArrow=block;rounded=0;elbow=vertical;" edge="1" parent="1" source="Lrtluq5l5MD6FJIpUNIz-153">
          <mxGeometry x="-0.045" width="80" relative="1" as="geometry">
            <mxPoint x="434.09" y="350" as="sourcePoint" />
            <mxPoint x="657.0899999999999" y="350" as="targetPoint" />
            <mxPoint as="offset" />
          </mxGeometry>
        </mxCell>
        <mxCell id="Lrtluq5l5MD6FJIpUNIz-185" value="confirmation pop up" style="html=1;verticalAlign=bottom;endArrow=open;dashed=1;endSize=8;rounded=0;elbow=vertical;" edge="1" parent="1">
          <mxGeometry x="0.0578" y="-5" relative="1" as="geometry">
            <mxPoint x="647.3399999999999" y="300" as="sourcePoint" />
            <mxPoint x="444.9" y="300" as="targetPoint" />
            <mxPoint as="offset" />
            <Array as="points" />
          </mxGeometry>
        </mxCell>
        <mxCell id="Lrtluq5l5MD6FJIpUNIz-187" value="" style="group" vertex="1" connectable="0" parent="1">
          <mxGeometry x="657.0899999999999" y="350" width="67.81" height="40" as="geometry" />
        </mxCell>
        <mxCell id="Lrtluq5l5MD6FJIpUNIz-188" value="" style="html=1;points=[];perimeter=orthogonalPerimeter;container=0;" vertex="1" parent="Lrtluq5l5MD6FJIpUNIz-187">
          <mxGeometry width="12.108928571428573" height="40" as="geometry" />
        </mxCell>
        <mxCell id="Lrtluq5l5MD6FJIpUNIz-189" value="$_POST[&#39;delete&#39;]" style="edgeStyle=orthogonalEdgeStyle;html=1;align=left;spacingLeft=2;endArrow=block;rounded=0;exitX=1.22;exitY=0.045;exitDx=0;exitDy=0;exitPerimeter=0;entryX=0.953;entryY=0.985;entryDx=0;entryDy=0;entryPerimeter=0;" edge="1" parent="Lrtluq5l5MD6FJIpUNIz-187" source="Lrtluq5l5MD6FJIpUNIz-188" target="Lrtluq5l5MD6FJIpUNIz-188">
          <mxGeometry relative="1" as="geometry">
            <mxPoint x="-12.108928571428573" y="10" as="sourcePoint" />
            <Array as="points">
              <mxPoint x="67.81" y="2" />
              <mxPoint x="67.81" y="39" />
            </Array>
            <mxPoint x="-16.9525" y="30" as="targetPoint" />
          </mxGeometry>
        </mxCell>
        <mxCell id="Lrtluq5l5MD6FJIpUNIz-192" value="&quot;uploadeddatatable&quot;, updated" style="html=1;verticalAlign=bottom;endArrow=open;dashed=1;endSize=8;rounded=0;elbow=vertical;" edge="1" parent="1">
          <mxGeometry x="0.0578" y="-5" relative="1" as="geometry">
            <mxPoint x="652.44" y="390" as="sourcePoint" />
            <mxPoint x="450" y="390" as="targetPoint" />
            <mxPoint as="offset" />
            <Array as="points" />
          </mxGeometry>
        </mxCell>
      </root>
    </mxGraphModel>
  </diagram>
</mxfile>
